{
  "asset": {
    "generator": "Khronos glTF Blender I/O v3.6.28",
    "version": "2.0"
  },
  "extensionsUsed": [
    "KHR_materials_clearcoat"
  ],
  "scene": 0,
  "scenes": [
    {
      "name": "Scene",
      "nodes": [
        0,
        1
      ]
    }
  ],
  "nodes": [
    {
      "mesh": 0,
      "name": "Cylinder.001",
      "rotation": [
        -0.2588190734386444,
        0,
        0,
        0.965925931930542
      ],
      "scale": [
        0.5018370151519775,
        1.0008325576782227,
        0.4534386396408081
      ],
      "translation": [
        0,
        -2.133836030960083,
        -5.336254119873047
      ]
    },
    {
      "mesh": 1,
      "name": "Cylinder",
      "rotation": [
        -0.2588190734386444,
        0,
        0,
        0.965925931930542
      ],
      "scale": [
        0.5018370151519775,
        1.0008325576782227,
        0.4534386396408081
      ],
      "translation": [
        0,
        -2.139280319213867,
        -5.333321571350098
      ]
    }
  ],
  "animations": [
    {
      "channels": [
        {
          "sampler": 0,
          "target": {
            "node": 0,
            "path": "translation"
          }
        },
        {
          "sampler": 1,
          "target": {
            "node": 0,
            "path": "weights"
          }
        },
        {
          "sampler": 2,
          "target": {
            "node": 1,
            "path": "translation"
          }
        },
        {
          "sampler": 3,
          "target": {
            "node": 1,
            "path": "weights"
          }
        }
      ],
      "name": "a",
      "samplers": [
        {
          "input": 12,
          "interpolation": "LINEAR",
          "output": 13
        },
        {
          "input": 14,
          "interpolation": "LINEAR",
          "output": 15
        },
        {
          "input": 12,
          "interpolation": "LINEAR",
          "output": 16
        },
        {
          "input": 14,
          "interpolation": "LINEAR",
          "output": 17
        }
      ]
    }
  ],
  "materials": [
    {
      "doubleSided": true,
      "extensions": {
        "KHR_materials_clearcoat": {
          "clearcoatFactor": 1,
          "clearcoatRoughnessFactor": 0.25047242641448975
        }
      },
      "name": "Material.001",
      "pbrMetallicRoughness": {
        "baseColorFactor": [
          0.7454043626785278,
          0.5028864741325378,
          0.21586059033870697,
          1
        ],
        "metallicFactor": 0.07874016463756561,
        "roughnessFactor": 0.5070866346359253
      }
    }
  ],
  "meshes": [
    {
      "extras": {
        "targetNames": [
          "Key 1"
        ]
      },
      "name": "Cylinder.001",
      "primitives": [
        {
          "attributes": {
            "POSITION": 0,
            "NORMAL": 1,
            "TEXCOORD_0": 2
          },
          "indices": 3,
          "material": 0,
          "targets": [
            {
              "POSITION": 4,
              "NORMAL": 5
            }
          ]
        }
      ],
      "weights": [
        0
      ]
    },
    {
      "extras": {
        "targetNames": [
          "Key 1"
        ]
      },
      "name": "Cylinder.002",
      "primitives": [
        {
          "attributes": {
            "POSITION": 6,
            "NORMAL": 7,
            "TEXCOORD_0": 8
          },
          "indices": 9,
          "material": 0,
          "targets": [
            {
              "POSITION": 10,
              "NORMAL": 11
            }
          ]
        }
      ],
      "weights": [
        0
      ]
    }
  ],
  "accessors": [
    {
      "bufferView": 0,
      "componentType": 5126,
      "count": 98,
      "max": [
        1,
        1,
        1
      ],
      "min": [
        -1,
        0,
        -1
      ],
      "type": "VEC3"
    },
    {
      "bufferView": 1,
      "componentType": 5126,
      "count": 98,
      "type": "VEC3"
    },
    {
      "bufferView": 2,
      "componentType": 5126,
      "count": 98,
      "type": "VEC2"
    },
    {
      "bufferView": 3,
      "componentType": 5123,
      "count": 282,
      "type": "SCALAR"
    },
    {
      "bufferView": 4,
      "componentType": 5126,
      "count": 98,
      "max": [
        0,
        -0.0029664200264960527,
        -0.0024018287658691406
      ],
      "min": [
        0,
        -0.8029664754867554,
        -0.0024019479751586914
      ],
      "type": "VEC3"
    },
    {
      "bufferView": 5,
      "componentType": 5126,
      "count": 98,
      "type": "VEC3"
    },
    {
      "bufferView": 6,
      "componentType": 5126,
      "count": 98,
      "max": [
        1,
        0,
        1
      ],
      "min": [
        -1,
        -1,
        -1
      ],
      "type": "VEC3"
    },
    {
      "bufferView": 7,
      "componentType": 5126,
      "count": 98,
      "type": "VEC3"
    },
    {
      "bufferView": 8,
      "componentType": 5126,
      "count": 98,
      "type": "VEC2"
    },
    {
      "bufferView": 9,
      "componentType": 5123,
      "count": 282,
      "type": "SCALAR"
    },
    {
      "bufferView": 10,
      "componentType": 5126,
      "count": 98,
      "max": [
        0,
        0.8038200736045837,
        0.011157631874084473
      ],
      "min": [
        0,
        0.003820105455815792,
        0.011157453060150146
      ],
      "type": "VEC3"
    },
    {
      "bufferView": 11,
      "componentType": 5126,
      "count": 98,
      "type": "VEC3"
    },
    {
      "bufferView": 12,
      "componentType": 5126,
      "count": 36,
      "max": [
        2.0833333333333335
      ],
      "min": [
        0.625
      ],
      "type": "SCALAR"
    },
    {
      "bufferView": 13,
      "componentType": 5126,
      "count": 36,
      "type": "VEC3"
    },
    {
      "bufferView": 14,
      "componentType": 5126,
      "count": 31,
      "max": [
        1.875
      ],
      "min": [
        0.625
      ],
      "type": "SCALAR"
    },
    {
      "bufferView": 15,
      "componentType": 5126,
      "count": 31,
      "type": "SCALAR"
    },
    {
      "bufferView": 16,
      "componentType": 5126,
      "count": 36,
      "type": "VEC3"
    },
    {
      "bufferView": 17,
      "componentType": 5126,
      "count": 31,
      "type": "SCALAR"
    }
  ],
  "bufferViews": [
    {
      "buffer": 0,
      "byteLength": 1176,
      "byteOffset": 0,
      "target": 34962
    },
    {
      "buffer": 0,
      "byteLength": 1176,
      "byteOffset": 1176,
      "target": 34962
    },
    {
      "buffer": 0,
      "byteLength": 784,
      "byteOffset": 2352,
      "target": 34962
    },
    {
      "buffer": 0,
      "byteLength": 564,
      "byteOffset": 3136,
      "target": 34963
    },
    {
      "buffer": 0,
      "byteLength": 1176,
      "byteOffset": 3700,
      "target": 34962
    },
    {
      "buffer": 0,
      "byteLength": 1176,
      "byteOffset": 4876,
      "target": 34962
    },
    {
      "buffer": 0,
      "byteLength": 1176,
      "byteOffset": 6052,
      "target": 34962
    },
    {
      "buffer": 0,
      "byteLength": 1176,
      "byteOffset": 7228,
      "target": 34962
    },
    {
      "buffer": 0,
      "byteLength": 784,
      "byteOffset": 8404,
      "target": 34962
    },
    {
      "buffer": 0,
      "byteLength": 564,
      "byteOffset": 9188,
      "target": 34963
    },
    {
      "buffer": 0,
      "byteLength": 1176,
      "byteOffset": 9752,
      "target": 34962
    },
    {
      "buffer": 0,
      "byteLength": 1176,
      "byteOffset": 10928,
      "target": 34962
    },
    {
      "buffer": 0,
      "byteLength": 144,
      "byteOffset": 12104
    },
    {
      "buffer": 0,
      "byteLength": 432,
      "byteOffset": 12248
    },
    {
      "buffer": 0,
      "byteLength": 124,
      "byteOffset": 12680
    },
    {
      "buffer": 0,
      "byteLength": 124,
      "byteOffset": 12804
    },
    {
      "buffer": 0,
      "byteLength": 432,
      "byteOffset": 12928
    },
    {
      "buffer": 0,
      "byteLength": 124,
      "byteOffset": 13360
    }
  ],
  "buffers": [
    {
      "uri": "cylinder_data.bin",
      "byteLength": 13484
    }
  ]
}