{
  "asset": {
    "generator": "Khronos glTF Blender I/O v3.6.28",
    "version": "2.0"
  },
  "extensionsUsed": [
    "KHR_materials_clearcoat"
  ],
  "scene": 0,
  "scenes": [
    {
      "name": "Scene",
      "nodes": [
        0
      ]
    }
  ],
  "nodes": [
    {
      "mesh": 0,
      "name": "Cone.001",
      "rotation": [
        0,
        0,
        -0.13000807166099548,
        0.9915129542350769
      ],
      "scale": [
        0.9103201031684875,
        0.9103201031684875,
        0.9103201627731323
      ],
      "translation": [
        1.6301145553588867,
        3.385589361190796,
        -1.9935197830200195
      ]
    }
  ],
  "animations": [
    {
      "channels": [
        {
          "sampler": 0,
          "target": {
            "node": 0,
            "path": "weights"
          }
        }
      ],
      "name": "Key.009Action",
      "samplers": [
        {
          "input": 6,
          "interpolation": "LINEAR",
          "output": 7
        }
      ]
    }
  ],
  "materials": [
    {
      "doubleSided": true,
      "extensions": {
        "KHR_materials_clearcoat": {
          "clearcoatFactor": 1,
          "clearcoatRoughnessFactor": 0.25047242641448975
        }
      },
      "name": "Material.002",
      "pbrMetallicRoughness": {
        "baseColorFactor": [
          0.7454043626785278,
          0.5028864741325378,
          0.21586059033870697,
          1
        ],
        "metallicFactor": 0.07874016463756561,
        "roughnessFactor": 0.5070866346359253
      }
    }
  ],
  "meshes": [
    {
      "extras": {
        "targetNames": [
          "Shrinkwrap"
        ]
      },
      "name": "Cone.001",
      "primitives": [
        {
          "attributes": {
            "POSITION": 0,
            "NORMAL": 1,
            "TEXCOORD_0": 2
          },
          "indices": 3,
          "material": 0,
          "targets": [
            {
              "POSITION": 4,
              "NORMAL": 5
            }
          ]
        }
      ],
      "weights": [
        1
      ]
    }
  ],
  "accessors": [
    {
      "bufferView": 0,
      "componentType": 5126,
      "count": 480,
      "max": [
        1,
        1,
        1
      ],
      "min": [
        -1,
        -1,
        -1
      ],
      "type": "VEC3"
    },
    {
      "bufferView": 1,
      "componentType": 5126,
      "count": 480,
      "type": "VEC3"
    },
    {
      "bufferView": 2,
      "componentType": 5126,
      "count": 480,
      "type": "VEC2"
    },
    {
      "bufferView": 3,
      "componentType": 5123,
      "count": 714,
      "type": "SCALAR"
    },
    {
      "bufferView": 4,
      "componentType": 5126,
      "count": 480,
      "max": [
        0.1971035599708557,
        0.005990803241729736,
        0.22368982434272766
      ],
      "min": [
        -0.24675911664962769,
        -0.03745490312576294,
        -0.25661054253578186
      ],
      "type": "VEC3"
    },
    {
      "bufferView": 5,
      "componentType": 5126,
      "count": 480,
      "type": "VEC3"
    },
    {
      "bufferView": 6,
      "componentType": 5126,
      "count": 36,
      "max": [
        2.0833333333333335
      ],
      "min": [
        0.625
      ],
      "type": "SCALAR"
    },
    {
      "bufferView": 7,
      "componentType": 5126,
      "count": 36,
      "type": "SCALAR"
    }
  ],
  "bufferViews": [
    {
      "buffer": 0,
      "byteLength": 5760,
      "byteOffset": 0,
      "target": 34962
    },
    {
      "buffer": 0,
      "byteLength": 5760,
      "byteOffset": 5760,
      "target": 34962
    },
    {
      "buffer": 0,
      "byteLength": 3840,
      "byteOffset": 11520,
      "target": 34962
    },
    {
      "buffer": 0,
      "byteLength": 1428,
      "byteOffset": 15360,
      "target": 34963
    },
    {
      "buffer": 0,
      "byteLength": 5760,
      "byteOffset": 16788,
      "target": 34962
    },
    {
      "buffer": 0,
      "byteLength": 5760,
      "byteOffset": 22548,
      "target": 34962
    },
    {
      "buffer": 0,
      "byteLength": 144,
      "byteOffset": 28308
    },
    {
      "buffer": 0,
      "byteLength": 144,
      "byteOffset": 28452
    }
  ],
  "buffers": [
    {
      "uri": "pyramid_data.bin",
      "byteLength": 28596
    }
  ]
}