{
  "asset": {
    "generator": "Khronos glTF Blender I/O v3.6.28",
    "version": "2.0"
  },
  "extensionsUsed": [
    "KHR_materials_clearcoat"
  ],
  "scene": 0,
  "scenes": [
    {
      "name": "Scene",
      "nodes": [
        0
      ]
    }
  ],
  "nodes": [
    {
      "mesh": 0,
      "name": "Sphere",
      "scale": [
        0.5090838074684143,
        0.5090838074684143,
        0.5090838074684143
      ],
      "translation": [
        1.6691691875457764,
        3.398942708969116,
        -5.612666130065918
      ]
    }
  ],
  "animations": [
    {
      "channels": [
        {
          "sampler": 0,
          "target": {
            "node": 0,
            "path": "weights"
          }
        }
      ],
      "name": "Key.004Action",
      "samplers": [
        {
          "input": 7,
          "interpolation": "LINEAR",
          "output": 8
        }
      ]
    }
  ],
  "materials": [
    {
      "doubleSided": true,
      "extensions": {
        "KHR_materials_clearcoat": {
          "clearcoatFactor": 1,
          "clearcoatRoughnessFactor": 0.25047242641448975
        }
      },
      "name": "Material.007",
      "pbrMetallicRoughness": {
        "baseColorFactor": [
          0.7454043626785278,
          0.5028864741325378,
          0.21586059033870697,
          1
        ],
        "metallicFactor": 0.07874016463756561,
        "roughnessFactor": 0.5070866346359253
      }
    }
  ],
  "meshes": [
    {
      "extras": {
        "targetNames": [
          "Key 1",
          "Shrinkwrap"
        ]
      },
      "name": "Cube.002",
      "primitives": [
        {
          "attributes": {
            "POSITION": 0,
            "NORMAL": 1
          },
          "indices": 2,
          "material": 0,
          "targets": [
            {
              "POSITION": 3,
              "NORMAL": 4
            },
            {
              "POSITION": 5,
              "NORMAL": 6
            }
          ]
        }
      ],
      "weights": [
        0,
        0
      ]
    }
  ],
  "accessors": [
    {
      "bufferView": 0,
      "componentType": 5126,
      "count": 1538,
      "max": [
        1.7320095300674438,
        1.7320095300674438,
        1.7320095300674438
      ],
      "min": [
        -1.7320095300674438,
        -1.7320095300674438,
        -1.7320095300674438
      ],
      "type": "VEC3"
    },
    {
      "bufferView": 1,
      "componentType": 5126,
      "count": 1538,
      "type": "VEC3"
    },
    {
      "bufferView": 2,
      "componentType": 5123,
      "count": 9216,
      "type": "SCALAR"
    },
    {
      "bufferView": 3,
      "componentType": 5126,
      "count": 1538,
      "max": [
        1.1920928955078125e-7,
        0.4407949447631836,
        1.1920928955078125e-7
      ],
      "min": [
        -1.1920928955078125e-7,
        -2.9287290573120117,
        -1.1920928955078125e-7
      ],
      "type": "VEC3"
    },
    {
      "bufferView": 4,
      "componentType": 5126,
      "count": 1538,
      "type": "VEC3"
    },
    {
      "bufferView": 5,
      "componentType": 5126,
      "count": 1538,
      "max": [
        0.8444311618804932,
        0.8113688230514526,
        0.8444305062294006
      ],
      "min": [
        -0.8444312214851379,
        -0.877102255821228,
        -0.8444318771362305
      ],
      "type": "VEC3"
    },
    {
      "bufferView": 6,
      "componentType": 5126,
      "count": 1538,
      "type": "VEC3"
    },
    {
      "bufferView": 7,
      "componentType": 5126,
      "count": 36,
      "max": [
        2.0833333333333335
      ],
      "min": [
        0.625
      ],
      "type": "SCALAR"
    },
    {
      "bufferView": 8,
      "componentType": 5126,
      "count": 72,
      "type": "SCALAR"
    }
  ],
  "bufferViews": [
    {
      "buffer": 0,
      "byteLength": 18456,
      "byteOffset": 0,
      "target": 34962
    },
    {
      "buffer": 0,
      "byteLength": 18456,
      "byteOffset": 18456,
      "target": 34962
    },
    {
      "buffer": 0,
      "byteLength": 18432,
      "byteOffset": 36912,
      "target": 34963
    },
    {
      "buffer": 0,
      "byteLength": 18456,
      "byteOffset": 55344,
      "target": 34962
    },
    {
      "buffer": 0,
      "byteLength": 18456,
      "byteOffset": 73800,
      "target": 34962
    },
    {
      "buffer": 0,
      "byteLength": 18456,
      "byteOffset": 92256,
      "target": 34962
    },
    {
      "buffer": 0,
      "byteLength": 18456,
      "byteOffset": 110712,
      "target": 34962
    },
    {
      "buffer": 0,
      "byteLength": 144,
      "byteOffset": 129168
    },
    {
      "buffer": 0,
      "byteLength": 288,
      "byteOffset": 129312
    }
  ],
  "buffers": [
    {
      "uri": "sphere_data.bin",
      "byteLength": 129600
    }
  ]
}